<svg width="194" height="34" viewBox="0 0 194 34" fill="none" xmlns="http://www.w3.org/2000/svg">
<path fill-rule="evenodd" clip-rule="evenodd" d="M3.69445 27.3237C5.18349 27.3237 6.38891 26.1175 6.38891 24.6275V3.69623C6.38891 2.20621 5.18349 1 3.69445 1C2.20541 1 1 2.20621 1 3.69623V24.6275C1 26.1175 2.20541 27.3237 3.69445 27.3237ZM19.2002 27.5366C25.1209 27.5366 29.5171 23.102 29.5171 17.6386V17.5676C29.5171 12.1042 25.1564 7.74058 19.2711 7.74058C13.3504 7.74058 8.95421 12.1752 8.95421 17.6386V17.7095C8.95421 23.1729 13.315 27.5366 19.2002 27.5366ZM14.2722 17.6386C14.2722 20.4412 16.293 22.8891 19.2711 22.8891C22.3556 22.8891 24.1991 20.5122 24.1991 17.7095V17.6386C24.1991 14.8359 22.1783 12.388 19.2002 12.388C16.1158 12.388 14.2722 14.765 14.2722 17.5676V17.6386ZM41.1585 27.5366C47.0792 27.5366 51.4754 23.102 51.4754 17.6386V17.5676C51.4754 12.1042 47.1146 7.74058 41.2294 7.74058C35.3087 7.74058 30.9125 12.1752 30.9125 17.6386V17.7095C30.9125 23.1729 35.2732 27.5366 41.1585 27.5366ZM36.2305 17.6386C36.2305 20.4412 38.2513 22.8891 41.2294 22.8891C44.3138 22.8891 46.1574 20.5122 46.1574 17.7095V17.6386C46.1574 14.8359 44.1366 12.388 41.1585 12.388C38.074 12.388 36.2305 14.765 36.2305 17.5676V17.6386ZM56.487 33C57.976 33 59.1814 31.7938 59.1814 30.3038V24.6275C60.4578 26.153 62.2304 27.4656 65.1021 27.4656C69.6047 27.4656 73.7527 23.9889 73.7527 17.6386V17.5676C73.7527 11.2173 69.5338 7.74058 65.1021 7.74058C62.3013 7.74058 60.4932 9.05322 59.1814 10.8271V10.5787C59.1814 9.08869 57.976 7.88248 56.487 7.88248C54.9979 7.88248 53.7925 9.08869 53.7925 10.5787V30.3038C53.7925 31.7938 54.9979 33 56.487 33ZM59.1105 17.6386C59.1105 20.796 61.2023 22.8891 63.7195 22.8891C66.2366 22.8891 68.3638 20.8315 68.3638 17.6386V17.5676C68.3638 14.4102 66.2366 12.3171 63.7195 12.3171C61.2023 12.3171 59.1105 14.4102 59.1105 17.5676V17.6386ZM82.806 27.4656C86.9186 27.4656 90.0739 25.5499 90.0739 21.3282V21.2572C90.0739 17.7805 86.9895 16.5033 84.3305 15.6164C84.1283 15.5466 83.9284 15.4789 83.7325 15.4125C81.936 14.8037 80.4661 14.3055 80.4661 13.3459V13.2749C80.4661 12.5299 81.1397 11.9623 82.4515 11.9623C83.586 11.9623 85.0396 12.4235 86.5641 13.1685C86.9186 13.3459 87.1668 13.4169 87.5568 13.4169C88.7622 13.4169 89.7194 12.4945 89.7194 11.2882C89.7194 10.3659 89.2231 9.65632 88.4431 9.26608C86.5995 8.34368 84.5432 7.81153 82.5578 7.81153C78.7289 7.81153 75.609 9.97561 75.609 13.8426V13.9135C75.609 17.6031 78.6225 18.8448 81.2815 19.6253C81.5255 19.6998 81.7661 19.7709 82.0008 19.8402C83.7782 20.3655 85.2168 20.7907 85.2168 21.8248V21.8958C85.2168 22.7472 84.5078 23.3149 82.9478 23.3149C81.4233 23.3149 79.6152 22.7472 77.8071 21.612C77.5235 21.4346 77.1335 21.3282 76.7435 21.3282C75.5381 21.3282 74.6163 22.2506 74.6163 23.4568C74.6163 24.3082 75.0772 24.9468 75.6444 25.3016C77.9489 26.7916 80.4661 27.4656 82.806 27.4656ZM101.503 26.898C100.51 27.2882 99.5881 27.4302 98.4181 27.4302C95.121 27.4302 92.8874 26.1175 92.8874 21.7184V12.7073H92.7102C91.4338 12.7073 90.4057 11.6785 90.4057 10.4013C90.4057 9.12417 91.4338 8.09534 92.7102 8.09534H92.8874V5.7184C92.8874 4.22838 94.0928 3.02217 95.5819 3.02217C97.0709 3.02217 98.2763 4.22838 98.2763 5.7184V8.09534H100.652C101.928 8.09534 102.956 9.12417 102.956 10.4013C102.956 11.6785 101.928 12.7073 100.652 12.7073H98.2763V20.8315C98.2763 22.0732 98.8081 22.6763 100.014 22.6763C100.113 22.6763 100.27 22.665 100.406 22.6552L100.406 22.6552C100.512 22.6476 100.605 22.6408 100.652 22.6408C101.857 22.6408 102.885 23.6341 102.885 24.8758C102.885 25.8337 102.247 26.6142 101.503 26.898ZM111.442 27.4656C114.172 27.4656 115.767 26.0111 117.008 24.4146V24.6275C117.008 26.1175 118.214 27.3237 119.703 27.3237C121.192 27.3237 122.397 26.1175 122.397 24.6275V10.5787C122.397 9.08869 121.192 7.88248 119.703 7.88248C118.214 7.88248 117.008 9.08869 117.008 10.5787V18.7029C117.008 21.2572 115.697 22.5698 113.64 22.5698C111.584 22.5698 110.379 21.2572 110.379 18.7029V10.5787C110.379 9.08869 109.173 7.88248 107.684 7.88248C106.195 7.88248 104.99 9.08869 104.99 10.5787V20.4058C104.99 24.7694 107.365 27.4656 111.442 27.4656ZM139.357 24.3792C138.045 26.153 136.237 27.4656 133.436 27.4656C129.004 27.4656 124.785 23.9889 124.785 17.6386V17.5676C124.785 11.2173 128.933 7.74058 133.436 7.74058C136.308 7.74058 138.08 9.05322 139.357 10.5787V3.69623C139.357 2.20621 140.562 1 142.051 1C143.54 1 144.745 2.20621 144.745 3.69623V24.6275C144.745 26.1175 143.54 27.3237 142.051 27.3237C140.562 27.3237 139.357 26.1175 139.357 24.6275V24.3792ZM134.819 22.8891C132.301 22.8891 130.174 20.796 130.174 17.6386V17.5676C130.174 14.3747 132.301 12.3171 134.819 12.3171C137.336 12.3171 139.427 14.4102 139.427 17.5676V17.6386C139.427 20.796 137.336 22.8891 134.819 22.8891ZM153.941 3.62528C153.941 5.18625 152.629 6.1796 150.927 6.1796C149.225 6.1796 147.913 5.18625 147.913 3.62528V3.55432C147.913 1.99335 149.225 1.03548 150.927 1.03548C152.629 1.03548 153.941 1.99335 153.941 3.55432V3.62528ZM150.927 27.3237C152.416 27.3237 153.621 26.1175 153.621 24.6275V10.5787C153.621 9.08869 152.416 7.88248 150.927 7.88248C149.438 7.88248 148.233 9.08869 148.233 10.5787V24.6275C148.233 26.1175 149.438 27.3237 150.927 27.3237ZM176.75 17.6386C176.75 23.102 172.354 27.5366 166.433 27.5366C160.548 27.5366 156.187 23.1729 156.187 17.7095V17.6386C156.187 12.1752 160.583 7.74058 166.504 7.74058C172.389 7.74058 176.75 12.1042 176.75 17.5676V17.6386ZM166.504 22.8891C163.526 22.8891 161.505 20.4412 161.505 17.6386V17.5676C161.505 14.765 163.348 12.388 166.433 12.388C169.411 12.388 171.432 14.8359 171.432 17.6386V17.7095C171.432 20.5122 169.588 22.8891 166.504 22.8891ZM193 21.3282C193 25.5499 189.845 27.4656 185.732 27.4656C183.392 27.4656 180.875 26.7916 178.571 25.3016C178.003 24.9468 177.542 24.3082 177.542 23.4568C177.542 22.2506 178.464 21.3282 179.67 21.3282C180.06 21.3282 180.45 21.4346 180.733 21.612C182.541 22.7472 184.349 23.3149 185.874 23.3149C187.434 23.3149 188.143 22.7472 188.143 21.8958V21.8248C188.143 20.7907 186.704 20.3655 184.927 19.8402C184.692 19.7709 184.452 19.6998 184.208 19.6253C181.549 18.8448 178.535 17.6031 178.535 13.9135V13.8426C178.535 9.97561 181.655 7.81153 185.484 7.81153C187.469 7.81153 189.526 8.34368 191.369 9.26608C192.149 9.65632 192.645 10.3659 192.645 11.2882C192.645 12.4945 191.688 13.4169 190.483 13.4169C190.093 13.4169 189.845 13.3459 189.49 13.1685C187.966 12.4235 186.512 11.9623 185.378 11.9623C184.066 11.9623 183.392 12.5299 183.392 13.2749V13.3459C183.392 14.3055 184.862 14.8037 186.659 15.4125C186.854 15.4789 187.054 15.5466 187.257 15.6164C189.916 16.5033 193 17.7805 193 21.2572V21.3282Z" fill="white"/>
<path d="M59.1814 24.6275L59.5649 24.3066L58.6814 23.2507V24.6275H59.1814ZM59.1814 10.8271H58.6814V12.3441L59.5835 11.1243L59.1814 10.8271ZM84.3305 15.6164L84.1674 16.0891L84.1723 16.0907L84.3305 15.6164ZM83.7325 15.4125L83.893 14.9389L83.7325 15.4125ZM86.5641 13.1685L86.7878 12.7213L86.7836 12.7193L86.5641 13.1685ZM88.4431 9.26608L88.6668 8.81892V8.81892L88.4431 9.26608ZM81.2815 19.6253L81.4275 19.147L81.4223 19.1455L81.2815 19.6253ZM82.0008 19.8402L82.1425 19.3607L82.0008 19.8402ZM77.8071 21.612L78.073 21.1885L78.0722 21.1881L77.8071 21.612ZM75.6444 25.3016L75.916 24.8816L75.9096 24.8776L75.6444 25.3016ZM101.503 26.898L101.324 26.4308L101.32 26.4327L101.503 26.898ZM92.8874 12.7073H93.3874V12.2073H92.8874V12.7073ZM92.8874 8.09534V8.59534H93.3874V8.09534H92.8874ZM98.2763 8.09534H97.7763V8.59534H98.2763V8.09534ZM98.2763 12.7073V12.2073H97.7763V12.7073H98.2763ZM100.406 22.6552L100.442 23.1539L100.447 23.1534L100.406 22.6552ZM100.406 22.6552L100.37 22.1564L100.365 22.1569L100.406 22.6552ZM117.008 24.4146H117.508V22.9566L116.614 24.1078L117.008 24.4146ZM139.357 24.3792H139.857V22.8621L138.955 24.0819L139.357 24.3792ZM139.357 10.5787L138.973 10.8996L139.857 11.9555V10.5787H139.357ZM178.571 25.3016L178.842 24.8816L178.836 24.8776L178.571 25.3016ZM180.733 21.612L180.999 21.1885L180.998 21.1881L180.733 21.612ZM184.927 19.8402L185.069 19.3607L184.927 19.8402ZM184.208 19.6253L184.354 19.147L184.348 19.1455L184.208 19.6253ZM191.369 9.26608L191.593 8.81892V8.81892L191.369 9.26608ZM189.49 13.1685L189.714 12.7213L189.71 12.7193L189.49 13.1685ZM186.659 15.4125L186.498 15.886L186.659 15.4125ZM187.257 15.6164L187.093 16.0891L187.098 16.0907L187.257 15.6164ZM5.88891 24.6275C5.88891 25.8417 4.90704 26.8237 3.69445 26.8237V27.8237C5.45995 27.8237 6.88891 26.3933 6.88891 24.6275H5.88891ZM5.88891 3.69623V24.6275H6.88891V3.69623H5.88891ZM3.69445 1.5C4.90704 1.5 5.88891 2.48204 5.88891 3.69623H6.88891C6.88891 1.93038 5.45995 0.5 3.69445 0.5V1.5ZM1.5 3.69623C1.5 2.48204 2.48187 1.5 3.69445 1.5V0.5C1.92896 0.5 0.5 1.93038 0.5 3.69623H1.5ZM1.5 24.6275V3.69623H0.5V24.6275H1.5ZM3.69445 26.8237C2.48187 26.8237 1.5 25.8417 1.5 24.6275H0.5C0.5 26.3933 1.92896 27.8237 3.69445 27.8237V26.8237ZM29.0171 17.6386C29.0171 22.8136 24.8572 27.0366 19.2002 27.0366V28.0366C25.3846 28.0366 30.0171 23.3904 30.0171 17.6386H29.0171ZM29.0171 17.5676V17.6386H30.0171V17.5676H29.0171ZM19.2711 8.24058C24.894 8.24058 29.0171 12.3939 29.0171 17.5676H30.0171C30.0171 11.8145 25.4188 7.24058 19.2711 7.24058V8.24058ZM9.45421 17.6386C9.45421 12.4636 13.6141 8.24058 19.2711 8.24058V7.24058C13.0867 7.24058 8.45421 11.8868 8.45421 17.6386H9.45421ZM9.45421 17.7095V17.6386H8.45421V17.7095H9.45421ZM19.2002 27.0366C13.5774 27.0366 9.45421 22.8833 9.45421 17.7095H8.45421C8.45421 23.4626 13.0525 28.0366 19.2002 28.0366V27.0366ZM19.2711 22.3891C16.6116 22.3891 14.7722 20.2095 14.7722 17.6386H13.7722C13.7722 20.673 15.9745 23.3891 19.2711 23.3891V22.3891ZM23.6991 17.7095C23.6991 19.0034 23.2738 20.1748 22.5194 21.0166C21.7707 21.8522 20.6756 22.3891 19.2711 22.3891V23.3891C20.9511 23.3891 22.32 22.7376 23.2642 21.684C24.2027 20.6367 24.6991 19.2184 24.6991 17.7095H23.6991ZM23.6991 17.6386V17.7095H24.6991V17.6386H23.6991ZM19.2002 12.888C21.8597 12.888 23.6991 15.0676 23.6991 17.6386H24.6991C24.6991 14.6042 22.4969 11.888 19.2002 11.888V12.888ZM14.7722 17.5676C14.7722 16.2738 15.1975 15.1023 15.9519 14.2605C16.7006 13.425 17.7958 12.888 19.2002 12.888V11.888C17.5202 11.888 16.1513 12.5395 15.2072 13.5931C14.2687 14.6404 13.7722 16.0588 13.7722 17.5676H14.7722ZM14.7722 17.6386V17.5676H13.7722V17.6386H14.7722ZM50.9754 17.6386C50.9754 22.8136 46.8155 27.0366 41.1585 27.0366V28.0366C47.3429 28.0366 51.9754 23.3904 51.9754 17.6386H50.9754ZM50.9754 17.5676V17.6386H51.9754V17.5676H50.9754ZM41.2294 8.24058C46.8522 8.24058 50.9754 12.3939 50.9754 17.5676H51.9754C51.9754 11.8145 47.3771 7.24058 41.2294 7.24058V8.24058ZM31.4125 17.6386C31.4125 12.4636 35.5724 8.24058 41.2294 8.24058V7.24058C35.045 7.24058 30.4125 11.8868 30.4125 17.6386H31.4125ZM31.4125 17.7095V17.6386H30.4125V17.7095H31.4125ZM41.1585 27.0366C35.5357 27.0366 31.4125 22.8833 31.4125 17.7095H30.4125C30.4125 23.4626 35.0108 28.0366 41.1585 28.0366V27.0366ZM41.2294 22.3891C38.5699 22.3891 36.7305 20.2095 36.7305 17.6386H35.7305C35.7305 20.673 37.9327 23.3891 41.2294 23.3891V22.3891ZM45.6574 17.7095C45.6574 19.0034 45.2321 20.1748 44.4777 21.0166C43.729 21.8522 42.6339 22.3891 41.2294 22.3891V23.3891C42.9094 23.3891 44.2783 22.7376 45.2224 21.684C46.1609 20.6367 46.6574 19.2184 46.6574 17.7095H45.6574ZM45.6574 17.6386V17.7095H46.6574V17.6386H45.6574ZM41.1585 12.888C43.818 12.888 45.6574 15.0676 45.6574 17.6386H46.6574C46.6574 14.6042 44.4551 11.888 41.1585 11.888V12.888ZM36.7305 17.5676C36.7305 16.2738 37.1558 15.1023 37.9102 14.2605C38.6589 13.425 39.754 12.888 41.1585 12.888V11.888C39.4785 11.888 38.1096 12.5395 37.1655 13.5931C36.2269 14.6404 35.7305 16.0588 35.7305 17.5676H36.7305ZM36.7305 17.6386V17.5676H35.7305V17.6386H36.7305ZM58.6814 30.3038C58.6814 31.518 57.6996 32.5 56.487 32.5V33.5C58.2525 33.5 59.6814 32.0696 59.6814 30.3038H58.6814ZM58.6814 24.6275V30.3038H59.6814V24.6275H58.6814ZM65.1021 26.9656C62.4183 26.9656 60.7752 25.7532 59.5649 24.3066L58.798 24.9483C60.1404 26.5528 62.0425 27.9656 65.1021 27.9656V26.9656ZM73.2527 17.6386C73.2527 20.7013 72.2548 23.0285 70.7556 24.5868C69.2541 26.1476 67.2234 26.9656 65.1021 26.9656V27.9656C67.4834 27.9656 69.7781 27.0453 71.4762 25.2801C73.1767 23.5126 74.2527 20.9262 74.2527 17.6386H73.2527ZM73.2527 17.5676V17.6386H74.2527V17.5676H73.2527ZM65.1021 8.24058C69.2422 8.24058 73.2527 11.4777 73.2527 17.5676H74.2527C74.2527 10.9569 69.8255 7.24058 65.1021 7.24058V8.24058ZM59.5835 11.1243C60.8244 9.44623 62.4956 8.24058 65.1021 8.24058V7.24058C62.107 7.24058 60.162 8.6602 58.7794 10.5298L59.5835 11.1243ZM58.6814 10.5787V10.8271H59.6814V10.5787H58.6814ZM56.487 8.38248C57.6996 8.38248 58.6814 9.36452 58.6814 10.5787H59.6814C59.6814 8.81286 58.2525 7.38248 56.487 7.38248V8.38248ZM54.2925 10.5787C54.2925 9.36452 55.2744 8.38248 56.487 8.38248V7.38248C54.7215 7.38248 53.2925 8.81286 53.2925 10.5787H54.2925ZM54.2925 30.3038V10.5787H53.2925V30.3038H54.2925ZM56.487 32.5C55.2744 32.5 54.2925 31.518 54.2925 30.3038H53.2925C53.2925 32.0696 54.7215 33.5 56.487 33.5V32.5ZM63.7195 22.3891C61.5205 22.3891 59.6105 20.564 59.6105 17.6386H58.6105C58.6105 21.028 60.884 23.3891 63.7195 23.3891V22.3891ZM67.8638 17.6386C67.8638 20.5919 65.9253 22.3891 63.7195 22.3891V23.3891C66.548 23.3891 68.8638 21.071 68.8638 17.6386H67.8638ZM67.8638 17.5676V17.6386H68.8638V17.5676H67.8638ZM63.7195 12.8171C65.9231 12.8171 67.8638 14.6474 67.8638 17.5676H68.8638C68.8638 14.173 66.5502 11.8171 63.7195 11.8171V12.8171ZM59.6105 17.5676C59.6105 14.6422 61.5205 12.8171 63.7195 12.8171V11.8171C60.884 11.8171 58.6105 14.1782 58.6105 17.5676H59.6105ZM59.6105 17.6386V17.5676H58.6105V17.6386H59.6105ZM89.5739 21.3282C89.5739 23.2999 88.845 24.6816 87.6765 25.5844C86.4893 26.5016 84.7936 26.9656 82.806 26.9656V27.9656C84.9311 27.9656 86.8692 27.4718 88.2879 26.3757C89.7253 25.2652 90.5739 23.5782 90.5739 21.3282H89.5739ZM89.5739 21.2572V21.3282H90.5739V21.2572H89.5739ZM84.1723 16.0907C85.5014 16.5341 86.8622 17.053 87.8909 17.8592C88.8948 18.6459 89.5739 19.6977 89.5739 21.2572H90.5739C90.5739 19.34 89.7108 18.0149 88.5078 17.0721C87.3295 16.1487 85.8186 15.5857 84.4887 15.1421L84.1723 16.0907ZM83.572 15.886C83.7681 15.9525 83.9667 16.0198 84.1674 16.0891L84.4936 15.1438C84.2898 15.0734 84.0887 15.0053 83.893 14.9389L83.572 15.886ZM79.9661 13.3459C79.9661 14.1257 80.5726 14.6174 81.1875 14.9504C81.8254 15.2958 82.6887 15.5867 83.572 15.886L83.893 14.9389C82.9798 14.6295 82.21 14.3669 81.6637 14.0711C81.0946 13.7629 80.9661 13.5257 80.9661 13.3459H79.9661ZM79.9661 13.2749V13.3459H80.9661V13.2749H79.9661ZM82.4515 11.4623C81.7312 11.4623 81.122 11.6171 80.6782 11.931C80.219 12.2557 79.9661 12.7332 79.9661 13.2749H80.9661C80.9661 13.0717 81.05 12.8929 81.2556 12.7475C81.4764 12.5913 81.86 12.4623 82.4515 12.4623V11.4623ZM86.7836 12.7193C85.2353 11.9627 83.6997 11.4623 82.4515 11.4623V12.4623C83.4723 12.4623 84.8438 12.8844 86.3445 13.6177L86.7836 12.7193ZM87.5568 12.9169C87.2575 12.9169 87.0856 12.8703 86.7878 12.7214L86.3403 13.6157C86.7516 13.8215 87.076 13.9169 87.5568 13.9169V12.9169ZM89.2194 11.2882C89.2194 12.2078 88.4966 12.9169 87.5568 12.9169V13.9169C89.0277 13.9169 90.2194 12.7811 90.2194 11.2882H89.2194ZM88.2194 9.71323C88.8458 10.0267 89.2194 10.5723 89.2194 11.2882H90.2194C90.2194 10.1595 89.6003 9.28597 88.6668 8.81892L88.2194 9.71323ZM82.5578 8.31153C84.4568 8.31153 86.437 8.82144 88.2194 9.71323L88.6668 8.81892C86.7621 7.86593 84.6297 7.31153 82.5578 7.31153V8.31153ZM76.109 13.8426C76.109 12.0573 76.8229 10.6928 77.9632 9.76473C79.1145 8.82767 80.7326 8.31153 82.5578 8.31153V7.31153C80.5541 7.31153 78.6978 7.87743 77.3319 8.98915C75.955 10.1099 75.109 11.7609 75.109 13.8426H76.109ZM76.109 13.9135V13.8426H75.109V13.9135H76.109ZM81.4223 19.1455C80.0997 18.7573 78.7643 18.2734 77.7606 17.47C76.7839 16.6881 76.109 15.5947 76.109 13.9135H75.109C75.109 15.9219 75.9409 17.2942 77.1357 18.2506C78.3035 19.1856 79.8044 19.7128 81.1407 20.105L81.4223 19.1455ZM82.1425 19.3607C81.9075 19.2913 81.669 19.2208 81.4275 19.1471L81.1355 20.1035C81.382 20.1787 81.6247 20.2505 81.8591 20.3197L82.1425 19.3607ZM85.7168 21.8248C85.7168 21.0173 85.1346 20.5235 84.5052 20.1977C83.8714 19.8695 83.0141 19.6183 82.1425 19.3607L81.8591 20.3197C82.7649 20.5874 83.5156 20.8114 84.0455 21.0857C84.5798 21.3623 84.7168 21.5982 84.7168 21.8248H85.7168ZM85.7168 21.8958V21.8248H84.7168V21.8958H85.7168ZM82.9478 23.8149C83.776 23.8149 84.4565 23.6663 84.9448 23.3406C85.4608 22.9963 85.7168 22.4829 85.7168 21.8958H84.7168C84.7168 22.1601 84.6183 22.3562 84.3898 22.5087C84.1336 22.6796 83.6796 22.8149 82.9478 22.8149V23.8149ZM77.5412 22.0354C79.4069 23.2068 81.3062 23.8149 82.9478 23.8149V22.8149C81.5405 22.8149 79.8235 22.2877 78.073 21.1885L77.5412 22.0354ZM76.7435 21.8282C77.052 21.8282 77.3476 21.9144 77.542 22.0359L78.0722 21.1881C77.6993 20.9548 77.215 20.8282 76.7435 20.8282V21.8282ZM75.1163 23.4568C75.1163 22.5264 75.8145 21.8282 76.7435 21.8282V20.8282C75.2616 20.8282 74.1163 21.9747 74.1163 23.4568H75.1163ZM75.9096 24.8776C75.4657 24.6 75.1163 24.1106 75.1163 23.4568H74.1163C74.1163 24.5058 74.6887 25.2936 75.3793 25.7255L75.9096 24.8776ZM82.806 26.9656C80.5612 26.9656 78.1385 26.3187 75.9159 24.8817L75.373 25.7214C77.7593 27.2644 80.371 27.9656 82.806 27.9656V26.9656ZM98.4181 27.9302C99.636 27.9302 100.622 27.7813 101.686 27.3633L101.32 26.4327C100.398 26.7952 99.5402 26.9302 98.4181 26.9302V27.9302ZM92.3874 21.7184C92.3874 23.9962 92.9665 25.5865 94.0809 26.5947C95.1855 27.594 96.7174 27.9302 98.4181 27.9302V26.9302C96.8217 26.9302 95.5883 26.61 94.7518 25.8532C93.9251 25.1053 93.3874 23.8397 93.3874 21.7184H92.3874ZM92.3874 12.7073V21.7184H93.3874V12.7073H92.3874ZM92.7102 13.2073H92.8874V12.2073H92.7102V13.2073ZM89.9057 10.4013C89.9057 11.9543 91.1574 13.2073 92.7102 13.2073V12.2073C91.7103 12.2073 90.9057 11.4027 90.9057 10.4013H89.9057ZM92.7102 7.59534C91.1574 7.59534 89.9057 8.84834 89.9057 10.4013H90.9057C90.9057 9.4 91.7103 8.59534 92.7102 8.59534V7.59534ZM92.8874 7.59534H92.7102V8.59534H92.8874V7.59534ZM92.3874 5.7184V8.09534H93.3874V5.7184H92.3874ZM95.5819 2.52217C93.8164 2.52217 92.3874 3.95255 92.3874 5.7184H93.3874C93.3874 4.50421 94.3693 3.52217 95.5819 3.52217V2.52217ZM98.7763 5.7184C98.7763 3.95255 97.3474 2.52217 95.5819 2.52217V3.52217C96.7945 3.52217 97.7763 4.50421 97.7763 5.7184H98.7763ZM98.7763 8.09534V5.7184H97.7763V8.09534H98.7763ZM100.652 7.59534H98.2763V8.59534H100.652V7.59534ZM103.456 10.4013C103.456 8.84834 102.204 7.59534 100.652 7.59534V8.59534C101.652 8.59534 102.456 9.4 102.456 10.4013H103.456ZM100.652 13.2073C102.204 13.2073 103.456 11.9543 103.456 10.4013H102.456C102.456 11.4027 101.652 12.2073 100.652 12.2073V13.2073ZM98.2763 13.2073H100.652V12.2073H98.2763V13.2073ZM98.7763 20.8315V12.7073H97.7763V20.8315H98.7763ZM100.014 22.1763C99.4879 22.1763 99.2134 22.0455 99.0596 21.8796C98.8985 21.7058 98.7763 21.3936 98.7763 20.8315H97.7763C97.7763 21.5111 97.9201 22.1213 98.3262 22.5594C98.7397 23.0055 99.3337 23.1763 100.014 23.1763V22.1763ZM100.37 22.1565C100.226 22.1669 100.091 22.1763 100.014 22.1763V23.1763C100.136 23.1763 100.314 23.1631 100.442 23.1539L100.37 22.1565ZM100.365 22.1569L100.364 22.1569L100.447 23.1534L100.448 23.1534L100.365 22.1569ZM100.652 22.1408C100.582 22.1408 100.464 22.1497 100.37 22.1565L100.442 23.1539C100.496 23.15 100.543 23.1466 100.582 23.1442C100.602 23.1429 100.618 23.1421 100.631 23.1415C100.637 23.1412 100.642 23.141 100.646 23.1409C100.648 23.1409 100.649 23.1408 100.65 23.1408C100.651 23.1408 100.652 23.1408 100.652 23.1408V22.1408ZM103.385 24.8758C103.385 23.3532 102.128 22.1408 100.652 22.1408V23.1408C101.586 23.1408 102.385 23.9151 102.385 24.8758H103.385ZM101.681 27.3652C102.603 27.0138 103.385 26.0582 103.385 24.8758H102.385C102.385 25.6092 101.892 26.2146 101.324 26.4308L101.681 27.3652ZM116.614 24.1078C115.414 25.6515 113.947 26.9656 111.442 26.9656V27.9656C114.397 27.9656 116.121 26.3707 117.403 24.7215L116.614 24.1078ZM117.508 24.6275V24.4146H116.508V24.6275H117.508ZM119.703 26.8237C118.49 26.8237 117.508 25.8417 117.508 24.6275H116.508C116.508 26.3933 117.937 27.8237 119.703 27.8237V26.8237ZM121.897 24.6275C121.897 25.8417 120.915 26.8237 119.703 26.8237V27.8237C121.468 27.8237 122.897 26.3933 122.897 24.6275H121.897ZM121.897 10.5787V24.6275H122.897V10.5787H121.897ZM119.703 8.38248C120.915 8.38248 121.897 9.36452 121.897 10.5787H122.897C122.897 8.81286 121.468 7.38248 119.703 7.38248V8.38248ZM117.508 10.5787C117.508 9.36452 118.49 8.38248 119.703 8.38248V7.38248C117.937 7.38248 116.508 8.81286 116.508 10.5787H117.508ZM117.508 18.7029V10.5787H116.508V18.7029H117.508ZM113.64 23.0698C114.778 23.0698 115.767 22.7032 116.466 21.9294C117.159 21.1625 117.508 20.0608 117.508 18.7029H116.508C116.508 19.8992 116.201 20.7311 115.724 21.259C115.254 21.7802 114.559 22.0698 113.64 22.0698V23.0698ZM109.879 18.7029C109.879 20.0509 110.196 21.1513 110.86 21.9208C111.533 22.7019 112.501 23.0698 113.64 23.0698V22.0698C112.723 22.0698 112.06 21.7815 111.617 21.2677C111.164 20.7423 110.879 19.9092 110.879 18.7029H109.879ZM109.879 10.5787V18.7029H110.879V10.5787H109.879ZM107.684 8.38248C108.897 8.38248 109.879 9.36452 109.879 10.5787H110.879C110.879 8.81286 109.45 7.38248 107.684 7.38248V8.38248ZM105.49 10.5787C105.49 9.36452 106.472 8.38248 107.684 8.38248V7.38248C105.919 7.38248 104.49 8.81286 104.49 10.5787H105.49ZM105.49 20.4058V10.5787H104.49V20.4058H105.49ZM111.442 26.9656C109.519 26.9656 108.05 26.3335 107.058 25.2366C106.059 24.1331 105.49 22.5004 105.49 20.4058H104.49C104.49 22.6748 105.108 24.572 106.316 25.9075C107.531 27.2497 109.288 27.9656 111.442 27.9656V26.9656ZM133.436 27.9656C136.431 27.9656 138.376 26.546 139.759 24.6765L138.955 24.0819C137.714 25.76 136.042 26.9656 133.436 26.9656V27.9656ZM124.285 17.6386C124.285 24.2493 128.713 27.9656 133.436 27.9656V26.9656C129.296 26.9656 125.285 23.7285 125.285 17.6386H124.285ZM124.285 17.5676V17.6386H125.285V17.5676H124.285ZM133.436 7.24058C131.055 7.24058 128.76 8.16091 127.062 9.92608C125.361 11.6936 124.285 14.28 124.285 17.5676H125.285C125.285 14.5049 126.283 12.1778 127.782 10.6194C129.284 9.0586 131.315 8.24058 133.436 8.24058V7.24058ZM139.74 10.2579C138.398 8.65339 136.495 7.24058 133.436 7.24058V8.24058C136.12 8.24058 137.763 9.45304 138.973 10.8996L139.74 10.2579ZM138.857 3.69623V10.5787H139.857V3.69623H138.857ZM142.051 0.5C140.286 0.5 138.857 1.93038 138.857 3.69623H139.857C139.857 2.48204 140.838 1.5 142.051 1.5V0.5ZM145.245 3.69623C145.245 1.93038 143.817 0.5 142.051 0.5V1.5C143.264 1.5 144.245 2.48204 144.245 3.69623H145.245ZM145.245 24.6275V3.69623H144.245V24.6275H145.245ZM142.051 27.8237C143.817 27.8237 145.245 26.3934 145.245 24.6275H144.245C144.245 25.8417 143.264 26.8237 142.051 26.8237V27.8237ZM138.857 24.6275C138.857 26.3933 140.286 27.8237 142.051 27.8237V26.8237C140.838 26.8237 139.857 25.8417 139.857 24.6275H138.857ZM138.857 24.3792V24.6275H139.857V24.3792H138.857ZM129.674 17.6386C129.674 21.0332 131.988 23.3891 134.819 23.3891V22.3891C132.615 22.3891 130.674 20.5588 130.674 17.6386H129.674ZM129.674 17.5676V17.6386H130.674V17.5676H129.674ZM134.819 11.8171C131.99 11.8171 129.674 14.1352 129.674 17.5676H130.674C130.674 14.6143 132.613 12.8171 134.819 12.8171V11.8171ZM139.927 17.5676C139.927 14.1782 137.654 11.8171 134.819 11.8171V12.8171C137.017 12.8171 138.927 14.6422 138.927 17.5676H139.927ZM139.927 17.6386V17.5676H138.927V17.6386H139.927ZM134.819 23.3891C137.654 23.3891 139.927 21.028 139.927 17.6386H138.927C138.927 20.564 137.017 22.3891 134.819 22.3891V23.3891ZM150.927 6.6796C151.872 6.6796 152.743 6.40401 153.389 5.8744C154.043 5.33799 154.441 4.55868 154.441 3.62528H153.441C153.441 4.25285 153.182 4.7507 152.755 5.10121C152.319 5.45852 151.684 5.6796 150.927 5.6796V6.6796ZM147.413 3.62528C147.413 4.55867 147.811 5.33799 148.465 5.8744C149.111 6.40401 149.982 6.6796 150.927 6.6796V5.6796C150.17 5.6796 149.535 5.45852 149.099 5.10121C148.672 4.7507 148.413 4.25286 148.413 3.62528H147.413ZM147.413 3.55432V3.62528H148.413V3.55432H147.413ZM150.927 0.535477C149.987 0.535477 149.116 0.799853 148.469 1.31983C147.812 1.84768 147.413 2.61975 147.413 3.55432H148.413C148.413 2.92792 148.671 2.44057 149.095 2.09924C149.53 1.75004 150.166 1.53548 150.927 1.53548V0.535477ZM154.441 3.55432C154.441 2.61975 154.042 1.84768 153.385 1.31982C152.738 0.799853 151.867 0.535477 150.927 0.535477V1.53548C151.689 1.53548 152.324 1.75004 152.759 2.09924C153.183 2.44057 153.441 2.92793 153.441 3.55432H154.441ZM154.441 3.62528V3.55432H153.441V3.62528H154.441ZM153.121 24.6275C153.121 25.8417 152.14 26.8237 150.927 26.8237V27.8237C152.693 27.8237 154.121 26.3933 154.121 24.6275H153.121ZM153.121 10.5787V24.6275H154.121V10.5787H153.121ZM150.927 8.38248C152.14 8.38248 153.121 9.36452 153.121 10.5787H154.121C154.121 8.81286 152.693 7.38248 150.927 7.38248V8.38248ZM148.733 10.5787C148.733 9.36452 149.714 8.38248 150.927 8.38248V7.38248C149.162 7.38248 147.733 8.81286 147.733 10.5787H148.733ZM148.733 24.6275V10.5787H147.733V24.6275H148.733ZM150.927 26.8237C149.714 26.8237 148.733 25.8417 148.733 24.6275H147.733C147.733 26.3933 149.162 27.8237 150.927 27.8237V26.8237ZM166.433 28.0366C172.617 28.0366 177.25 23.3904 177.25 17.6386H176.25C176.25 22.8136 172.09 27.0366 166.433 27.0366V28.0366ZM155.687 17.7095C155.687 23.4626 160.285 28.0366 166.433 28.0366V27.0366C160.81 27.0366 156.687 22.8833 156.687 17.7095H155.687ZM155.687 17.6386V17.7095H156.687V17.6386H155.687ZM166.504 7.24058C160.319 7.24058 155.687 11.8868 155.687 17.6386H156.687C156.687 12.4636 160.847 8.24058 166.504 8.24058V7.24058ZM177.25 17.5676C177.25 11.8145 172.651 7.24058 166.504 7.24058V8.24058C172.127 8.24058 176.25 12.3939 176.25 17.5676H177.25ZM177.25 17.6386V17.5676H176.25V17.6386H177.25ZM161.005 17.6386C161.005 20.673 163.207 23.3891 166.504 23.3891V22.3891C163.844 22.3891 162.005 20.2095 162.005 17.6386H161.005ZM161.005 17.5676V17.6386H162.005V17.5676H161.005ZM166.433 11.888C164.753 11.888 163.384 12.5395 162.44 13.5931C161.501 14.6404 161.005 16.0588 161.005 17.5676H162.005C162.005 16.2738 162.43 15.1023 163.184 14.2605C163.933 13.425 165.028 12.888 166.433 12.888V11.888ZM171.932 17.6386C171.932 14.6042 169.729 11.888 166.433 11.888V12.888C169.092 12.888 170.932 15.0676 170.932 17.6386H171.932ZM171.932 17.7095V17.6386H170.932V17.7095H171.932ZM166.504 23.3891C168.184 23.3891 169.553 22.7376 170.497 21.684C171.435 20.6367 171.932 19.2184 171.932 17.7095H170.932C170.932 19.0034 170.506 20.1748 169.752 21.0166C169.003 21.8522 167.908 22.3891 166.504 22.3891V23.3891ZM185.732 27.9656C187.857 27.9656 189.795 27.4718 191.214 26.3757C192.651 25.2652 193.5 23.5782 193.5 21.3282H192.5C192.5 23.2999 191.771 24.6816 190.603 25.5844C189.415 26.5016 187.72 26.9656 185.732 26.9656V27.9656ZM178.299 25.7214C180.685 27.2644 183.297 27.9656 185.732 27.9656V26.9656C183.487 26.9656 181.065 26.3187 178.842 24.8817L178.299 25.7214ZM177.042 23.4568C177.042 24.5058 177.615 25.2936 178.305 25.7255L178.836 24.8776C178.392 24.6 178.042 24.1106 178.042 23.4568H177.042ZM179.67 20.8282C178.188 20.8282 177.042 21.9747 177.042 23.4568H178.042C178.042 22.5264 178.741 21.8282 179.67 21.8282V20.8282ZM180.998 21.1881C180.625 20.9548 180.141 20.8282 179.67 20.8282V21.8282C179.978 21.8282 180.274 21.9143 180.468 22.0359L180.998 21.1881ZM185.874 22.8149C184.467 22.8149 182.75 22.2877 180.999 21.1885L180.467 22.0354C182.333 23.2068 184.232 23.8149 185.874 23.8149V22.8149ZM187.643 21.8958C187.643 22.1601 187.544 22.3562 187.316 22.5087C187.06 22.6796 186.606 22.8149 185.874 22.8149V23.8149C186.702 23.8149 187.383 23.6663 187.871 23.3406C188.387 22.9963 188.643 22.4829 188.643 21.8958H187.643ZM187.643 21.8248V21.8958H188.643V21.8248H187.643ZM184.785 20.3197C185.691 20.5874 186.442 20.8114 186.972 21.0857C187.506 21.3623 187.643 21.5982 187.643 21.8248H188.643C188.643 21.0173 188.061 20.5235 187.431 20.1977C186.798 19.8695 185.94 19.6183 185.069 19.3607L184.785 20.3197ZM184.062 20.1035C184.308 20.1787 184.551 20.2505 184.785 20.3197L185.069 19.3607C184.834 19.2913 184.595 19.2208 184.354 19.1471L184.062 20.1035ZM178.035 13.9135C178.035 15.9219 178.867 17.2942 180.062 18.2506C181.23 19.1856 182.73 19.7128 184.067 20.105L184.348 19.1455C183.026 18.7573 181.69 18.2734 180.687 17.47C179.71 16.6881 179.035 15.5947 179.035 13.9135H178.035ZM178.035 13.8426V13.9135H179.035V13.8426H178.035ZM185.484 7.31153C183.48 7.31153 181.624 7.87743 180.258 8.98915C178.881 10.1099 178.035 11.7609 178.035 13.8426H179.035C179.035 12.0573 179.749 10.6928 180.889 9.76473C182.041 8.82767 183.659 8.31153 185.484 8.31153V7.31153ZM191.593 8.81892C189.688 7.86593 187.556 7.31153 185.484 7.31153V8.31153C187.383 8.31153 189.363 8.82144 191.145 9.71323L191.593 8.81892ZM193.145 11.2882C193.145 10.1594 192.526 9.28597 191.593 8.81892L191.145 9.71323C191.772 10.0267 192.145 10.5723 192.145 11.2882H193.145ZM190.483 13.9169C191.954 13.9169 193.145 12.7811 193.145 11.2882H192.145C192.145 12.2078 191.423 12.9169 190.483 12.9169V13.9169ZM189.266 13.6157C189.678 13.8215 190.002 13.9169 190.483 13.9169V12.9169C190.184 12.9169 190.012 12.8703 189.714 12.7214L189.266 13.6157ZM185.378 12.4623C186.398 12.4623 187.77 12.8844 189.271 13.6177L189.71 12.7193C188.161 11.9627 186.626 11.4623 185.378 11.4623V12.4623ZM183.892 13.2749C183.892 13.0717 183.976 12.8929 184.182 12.7475C184.403 12.5913 184.786 12.4623 185.378 12.4623V11.4623C184.657 11.4623 184.048 11.6171 183.604 11.931C183.145 12.2557 182.892 12.7332 182.892 13.2749H183.892ZM183.892 13.3459V13.2749H182.892V13.3459H183.892ZM186.819 14.9389C185.906 14.6295 185.136 14.3669 184.59 14.0711C184.021 13.7629 183.892 13.5257 183.892 13.3459H182.892C182.892 14.1258 183.499 14.6174 184.114 14.9504C184.751 15.2958 185.615 15.5867 186.498 15.886L186.819 14.9389ZM187.42 15.1438C187.216 15.0734 187.015 15.0053 186.819 14.9389L186.498 15.886C186.694 15.9525 186.893 16.0198 187.093 16.0891L187.42 15.1438ZM193.5 21.2572C193.5 19.34 192.637 18.0149 191.434 17.0721C190.256 16.1487 188.745 15.5857 187.415 15.1421L187.098 16.0907C188.427 16.5341 189.788 17.053 190.817 17.8592C191.821 18.6459 192.5 19.6977 192.5 21.2572H193.5ZM193.5 21.3282V21.2572H192.5V21.3282H193.5Z" fill="black"/>
</svg>
